<?xml version="1.0" encoding="UTF-8"?>
<svg xmlns="http://www.w3.org/2000/svg" viewBox="0 0 96 96">
  <rect width="96" height="96" fill="#061733" />
  <g transform="translate(32,20) scale(0.3636)">
    <path fill="#fff" d="M88,20c0,11.1-11.6,15.6-17.7,17.8s-45.8,17.1-53.2,20c-7.3,3-17.1,5.2-17.1,16.3v-20c0-11.1,9.8-13.3,17.1-16.3s47.1-17.8,53.2-20c6.1-2.2,17.7-6.7,17.7-17.8v20h0Z"/>
    <path fill="#fff" d="M88,59.4c0,11.1-11.6,15.6-17.7,17.8-6.1,2.2-45.8,17.1-53.2,20-7.3,3-17.1,5.2-17.1,16.3v-20c0-11.1,9.8-13.3,17.1-16.3s47.1-17.8,53.2-20c6.1-2.2,17.7-6.7,17.7-17.8v20h0Z"/>
    <path fill="#fff" d="M88,98.7c0,11.1-11.6,15.6-17.7,17.8s-45.8,17.1-53.2,20c-7.3,3-17.1,5.2-17.1,16.3v-20c0-11.1,9.8-13.3,17.1-16.3s47.1-17.8,53.2-20c6.1-2.2,17.7-6.7,17.7-17.8v20h0Z"/>
  </g>
</svg>