<?xml version="1.0" encoding="UTF-8"?><svg id="Layer_2" xmlns="http://www.w3.org/2000/svg" viewBox="0 0 708.9 156"><defs><style>.cls-1,.cls-2{fill:#fff;}.cls-2{stroke:#fff;stroke-miterlimit:10;stroke-width:.6px;}</style></defs><g id="Layer_1-2"><g id="Layer_2-2"><g id="Layer_1-2"><path class="cls-1" d="M88,23.2c0,11.1-11.6,15.6-17.7,17.8s-45.8,17.1-53.2,20c-7.3,3-17.1,5.2-17.1,16.3v-20c0-11.1,9.8-13.3,17.1-16.3s47.1-17.8,53.2-20c6.1-2.2,17.7-6.7,17.7-17.8v20h0Z"/><path class="cls-1" d="M88,62.6c0,11.1-11.6,15.6-17.7,17.8-6.1,2.2-45.8,17.1-53.2,20-7.3,3-17.1,5.2-17.1,16.3v-20c0-11.1,9.8-13.3,17.1-16.3s47.1-17.8,53.2-20c6.1-2.2,17.7-6.7,17.7-17.8v20h0Z"/><path class="cls-1" d="M88,101.9c0,11.1-11.6,15.6-17.7,17.8s-45.8,17.1-53.2,20c-7.3,3-17.1,5.2-17.1,16.3v-20c0-11.1,9.8-13.3,17.1-16.3s47.1-17.8,53.2-20c6.1-2.2,17.7-6.7,17.7-17.8v20h0Z"/><path class="cls-1" d="M185.9,16.8v87.8h-8.5v-41.1h-52.1v41.1h-8.7V16.8h8.7v39.1h52.1V16.8h8.5Z"/><path class="cls-1" d="M238.1,105.8c-4.7,0-9-.9-12.9-2.7-3.8-1.7-7.3-4.2-10.2-7.3-2.9-3.1-5.2-6.7-6.7-10.7-1.6-4.1-2.4-8.6-2.4-13s.8-8.7,2.4-12.8c1.5-3.9,3.8-7.5,6.7-10.5s6.4-5.5,10.2-7.2c4-1.8,8.3-2.7,12.9-2.7s9,.9,12.9,2.7c3.8,1.7,7.3,4.2,10.1,7.2,5.8,6.3,9,14.6,8.9,23.1v2c0,.5,0,.9-.1,1.4h-55.2c.2,3.3,1,6.6,2.4,9.6,1.3,2.8,3.1,5.4,5.3,7.6,2.1,2.1,4.6,3.8,7.4,5,2.8,1.2,5.8,1.8,8.9,1.8,2.1,0,4.2-.3,6.2-.9,2-.5,3.9-1.3,5.7-2.4,1.7-1,3.3-2.2,4.7-3.7,1.4-1.4,2.4-3,3.2-4.8l7.3,2c-1,2.4-2.4,4.6-4.2,6.5-1.9,2-4,3.7-6.3,5.1-2.5,1.5-5.1,2.6-7.9,3.3-3,.8-6,1.2-9.1,1.2l-.2.2ZM261.8,69c-.2-3.5-1.1-6.6-2.4-9.5-1.3-2.7-3.1-5.2-5.2-7.4-2.1-2.1-4.6-3.7-7.3-4.8-2.8-1.2-5.8-1.8-8.9-1.7-3.1,0-6.1.6-8.9,1.7-2.7,1.1-5.3,2.8-7.4,4.8-2.1,2.1-3.9,4.7-5.1,7.4-1.3,3-2.1,6.2-2.3,9.4h47.4l.1.1Z"/><path class="cls-1" d="M288.2,14.3h8.4v75.7c0,2.4.6,4.3,2,5.6,1.3,1.4,3.2,2,5.6,2,1.1,0,2.2-.1,3.2-.4,1.2-.2,2.4-.6,3.5-1l1.5,6.8c-1.6.6-3.5,1.2-5.8,1.6-1.9.4-3.9.6-5.9.6-3.9,0-6.9-1.1-9.2-3.3-2.2-2.2-3.3-5.3-3.3-9.2V14.1v.2Z"/><path class="cls-1" d="M326.4,104.6V40.1h8.4v64.5h-8.4Z"/><path class="cls-1" d="M359.9,40.1l19.3,25.2,1,1.9,1-1.9,19.3-25.2h9l-24.6,32.4,24.6,32.1h-9l-19.3-25.1-1-1.7-1,1.7-19.3,25.1h-9l24.6-32.1-24.6-32.4h9Z"/><path class="cls-1" d="M427.4,104.6V16.8h8.7v80.2h50.7v7.7h-59.4v-.1Z"/><path class="cls-1" d="M518.9,105.8c-2.9,0-5.8-.5-8.5-1.5-2.5-1-4.8-2.4-6.8-4.3-4-3.7-6.2-8.8-6.1-14.2,0-2.7.6-5.4,2-7.8,1.4-2.5,3.3-4.6,5.6-6.2,2.4-1.7,5.2-3.1,8.5-4s6.9-1.4,10.9-1.4c3.4,0,6.7.3,10,.9,3.4.6,6.4,1.4,9,2.5v-5.8c0-5.7-1.6-10.2-4.8-13.5-3.2-3.3-7.7-5-13.4-5s-6.7.6-10.2,2c-3.5,1.3-7,3.2-10.5,5.7l-3-5.6c8.3-5.6,16.4-8.4,24.3-8.4s14.4,2.3,19.1,6.8c4.6,4.5,6.9,10.8,6.9,18.8v29c0,2.3,1,3.5,3.1,3.5v7.4c-1.1.2-2.1.3-3.2.4-2.1,0-3.8-.5-5-1.6s-1.8-2.5-1.9-4.4l-.2-5.1c-2.9,3.8-6.8,6.9-11.2,8.9-4.5,2.1-9.3,3.1-14.5,3.1l-.1-.2ZM520.9,99.4c4.4,0,8.4-.8,12-2.5s6.4-3.8,8.3-6.6c.7-.7,1.3-1.5,1.7-2.4.4-.8.5-1.6.5-2.4v-10.5c-2.8-1.1-5.7-1.9-8.7-2.5s-6.1-.9-9.2-.9c-5.9,0-10.8,1.2-14.5,3.7s-5.6,5.7-5.6,9.8.4,3.8,1.2,5.6c.8,1.7,1.9,3.2,3.2,4.5,1.4,1.3,3.1,2.4,4.9,3,2,.7,4.1,1.1,6.1,1.1h0l.1.1Z"/><path class="cls-1" d="M654.5,40.1h8.3l-27.7,64.5h-6.9l-13.9-32.9-13.7,32.9h-6.9l-27.7-64.4h8.2l23.5,55.8,12.2-29.5-11-26.2h7l8.4,21,8.4-21h7.2l-11,26.2,12.2,29.5,23.4-55.8v-.1Z"/><path class="cls-1" d="M326.4,26.7v-12.4h8.4v12.4h-8.4Z"/><path class="cls-1" d="M116.6,114.7h1.9v23.7c0,.7.2,1.3.6,1.7.4.4,1,.6,1.7.6h1c.4,0,.7-.2,1.1-.3l.4,1.5c-.5.2-1.1.4-1.6.4-.5.1-1.1.2-1.6.2-1.1,0-1.9-.3-2.5-.9s-1-1.5-1-2.6v-24.3h0Z"/><path class="cls-1" d="M126.2,118.2v-3.5h1.9v3.5h-1.9ZM126.2,142.4v-19.7h1.9v19.7h-1.9Z"/><path class="cls-1" d="M142.9,141.4c-.1,0-.3.2-.5.3-.3.2-.6.3-.9.4-.4.1-.8.2-1.2.4-.5.1-1,.2-1.5.2s-1,0-1.5-.2c-.5-.1-.9-.4-1.2-.7s-.6-.7-.8-1.1c-.2-.5-.3-1-.3-1.5v-14.8h-2.8v-1.6h2.8v-6.7h1.9v6.7h4.6v1.6h-4.6v14.4c0,.7.2,1.3.8,1.7.5.4,1.1.5,1.7.5.7,0,1.4-.1,2-.4s.9-.4,1-.5l.5,1.5v-.2Z"/><path class="cls-1" d="M146.2,118.2v-3.5h1.9v3.5h-1.9ZM146.2,142.4v-19.7h1.9v19.7h-1.9Z"/><path class="cls-1" d="M162,142.7c-1.3,0-2.6-.3-3.7-.8-1.1-.5-2.1-1.3-2.9-2.3-.8-.9-1.5-2.1-1.9-3.2-.5-1.2-.7-2.5-.7-3.7s.2-2.6.6-3.9c.4-1.2,1.1-2.3,1.9-3.3.8-.9,1.8-1.7,2.9-2.2,1.2-.6,2.4-.8,3.7-.8s3.2.4,4.5,1.4c1.3.9,2.4,2,3.2,3.3v-4.3h1.7v20.1c0,1.2-.2,2.4-.8,3.5-.5,1-1.2,1.8-2,2.5-.9.7-1.9,1.2-3,1.5-1.1.4-2.3.5-3.5.5s-2.1-.1-3.1-.3c-.8-.2-1.7-.5-2.4-.9s-1.3-.9-1.8-1.4-1-1.2-1.4-1.9l1.3-.9c.7,1.3,1.8,2.3,3.2,2.9s2.8.9,4.3.9c1,0,1.9-.1,2.9-.4.9-.3,1.7-.7,2.4-1.2s1.2-1.2,1.6-2c.4-.9.6-1.9.6-2.8v-4.3c-.8,1.3-1.9,2.3-3.2,3.1-1.3.7-2.8,1.1-4.3,1.1l-.1-.2ZM162.4,141.1c.8,0,1.7-.2,2.4-.5.8-.3,1.5-.7,2.2-1.2.6-.5,1.2-1.1,1.6-1.7.4-.6.6-1.2.8-1.9v-6.5c-.3-.8-.7-1.5-1.2-2.1s-1.1-1.2-1.7-1.7c-.6-.5-1.3-.8-2.1-1.1-.7-.3-1.5-.4-2.2-.4-1.1,0-2.2.2-3.2.8-.9.5-1.7,1.2-2.4,2-.6.8-1.2,1.8-1.5,2.8s-.5,2-.5,3.1.2,2.2.6,3.2c.4,1,.9,1.9,1.7,2.7.7.8,1.5,1.4,2.5,1.9.9.5,2,.7,3.1.7l-.1-.1Z"/><path class="cls-1" d="M182,142.8c-1.7,0-3.4-.6-4.6-1.8-.6-.5-1.1-1.2-1.4-1.9-.3-.8-.5-1.6-.5-2.4s.2-1.6.6-2.4c.4-.7,1-1.4,1.7-1.8.8-.5,1.7-1,2.6-1.2,1.1-.3,2.2-.4,3.3-.4s2.1.1,3.2.3c1,.2,1.9.4,2.9.8v-1.9c0-1.9-.5-3.4-1.6-4.4-1.1-1.1-2.5-1.7-4.3-1.7-1.1,0-2.1.2-3,.6-1.2.5-2.2,1-3.3,1.7l-.7-1.3c2.5-1.7,4.9-2.6,7.2-2.6s4.3.7,5.6,2.1c1.4,1.4,2,3.3,2,5.7v9.6c0,.6.3.9.8.9v1.7h-.8c-.5,0-.9-.2-1.2-.5-.3-.4-.5-.8-.5-1.2v-1.6c-.9,1.2-2.1,2.1-3.5,2.7s-3,.9-4.5.9v.1ZM182.4,141.3c1.4,0,2.8-.3,4-.8s2.2-1.3,2.8-2.2c.4-.5.6-1,.6-1.5v-3.5c-.9-.4-1.9-.6-2.8-.8-1-.2-2-.3-3.1-.3s-1.8.1-2.7.3c-.7.2-1.4.5-2.1.9-.5.4-1,.8-1.4,1.4-.3.5-.5,1.2-.5,1.8s.1,1.3.4,1.9c.2.6.6,1.1,1.1,1.5s1,.8,1.6,1c.7.2,1.4.4,2,.4h0l.1-.1Z"/><path class="cls-1" d="M206.2,141.4s-.3.2-.5.3c-.3.2-.6.3-.9.4-.4.1-.8.2-1.2.4-.5.1-1,.2-1.5.2s-1,0-1.5-.2c-.5-.1-.9-.4-1.2-.7s-.6-.7-.8-1.1c-.2-.5-.3-1-.3-1.5v-14.8h-2.8v-1.6h2.8v-6.7h1.9v6.7h4.6v1.6h-4.6v14.4c0,.7.2,1.3.8,1.7.5.4,1.1.5,1.7.5.7,0,1.4-.1,2-.4s.9-.4,1-.5l.5,1.5v-.2Z"/><path class="cls-1" d="M209.5,118.2v-3.5h1.9v3.5h-1.9ZM209.5,142.4v-19.7h1.9v19.7h-1.9Z"/><path class="cls-1" d="M225.6,142.8c-1.3,0-2.6-.3-3.8-.8s-2.2-1.3-3.1-2.2-1.5-2.1-2-3.2c-.5-1.2-.7-2.6-.7-3.9s.2-2.7.7-3.9c.5-1.2,1.2-2.3,2-3.2s1.9-1.7,3.1-2.2c1.2-.5,2.5-.8,3.8-.8s2.6.3,3.8.8,2.2,1.3,3,2.2c.9.9,1.6,2.1,2,3.2,1,2.5,1,5.3,0,7.8-.5,1.2-1.1,2.3-2,3.2-.9.9-1.9,1.7-3.1,2.2-1.1.6-2.4.8-3.8.8h.1ZM217.8,132.7c0,1.1.2,2.2.6,3.3.4,1,.9,1.9,1.7,2.7.7.8,1.5,1.4,2.4,1.8,1.9.9,4.1.9,6,0,.9-.4,1.8-1.1,2.5-1.8,1.5-1.7,2.3-3.8,2.3-6s-.8-4.3-2.3-6c-.7-.8-1.5-1.4-2.4-1.8-.9-.5-1.9-.7-3-.7s-2.1.2-3,.7c-.9.4-1.8,1.1-2.4,1.8-.7.8-1.3,1.7-1.7,2.7s-.6,2.2-.6,3.3h-.1Z"/><path class="cls-1" d="M255.8,142.4h-1.9v-11c0-2.5-.4-4.4-1.1-5.6-.7-1.2-1.9-1.7-3.4-1.7s-1.7.2-2.5.5-1.6.7-2.3,1.3c-.7.6-1.3,1.2-1.9,1.9-.5.7-.9,1.5-1.2,2.4v12.2h-1.9v-19.7h1.8v4.7c.4-.8.9-1.4,1.5-2.1s1.3-1.2,2-1.6,1.5-.8,2.4-1c.8-.2,1.7-.4,2.6-.4,2.1,0,3.7.8,4.5,2.2.9,1.5,1.3,3.7,1.3,6.4v11.3l.1.2Z"/><path class="cls-1" d="M277.5,142.8c-1.5,0-3-.2-4.4-.8-1.4-.5-2.6-1.3-3.6-2.3l.9-1.3c1,.9,2.1,1.6,3.3,2.1s2.5.7,3.7.7c1.7,0,3.1-.4,4.1-1.1,1-.6,1.6-1.8,1.6-3,0-.5-.1-1.1-.4-1.5s-.7-.8-1.2-1.1c-.6-.3-1.3-.6-2-.8-.8-.2-1.7-.5-2.7-.7-1.1-.3-2.1-.5-2.9-.8-.7-.2-1.4-.5-2-.9-.5-.3-.9-.8-1.2-1.3-.3-.6-.4-1.3-.4-1.9,0-.9.2-1.8.6-2.6.4-.7.9-1.4,1.6-1.8.7-.5,1.5-.9,2.3-1.1,2.3-.6,4.7-.5,6.9.4,1.1.4,2,1.1,2.8,2l-1.1,1c-.7-.8-1.6-1.4-2.5-1.7-1.1-.4-2.2-.6-3.4-.6-.7,0-1.4,0-2.1.2-.6.1-1.2.4-1.7.7-.5.3-.9.8-1.1,1.3-.3.6-.4,1.2-.4,1.8,0,.5,0,1,.3,1.4.2.4.5.7.9.9.5.3,1,.5,1.6.7s1.4.4,2.4.6c1.2.3,2.3.6,3.3.9.8.2,1.7.6,2.4,1,.6.4,1.1.8,1.5,1.4s.5,1.4.5,2.1c0,1.8-.7,3.2-2.1,4.2-1.4,1-3.2,1.5-5.5,1.5v.4Z"/><path class="cls-1" d="M297.7,142.8c-1.3,0-2.6-.3-3.8-.8s-2.2-1.3-3-2.2c-.9-.9-1.5-2.1-2-3.2-.5-1.2-.7-2.6-.7-3.9,0-2.7,1-5.2,2.8-7.2.9-.9,1.9-1.7,3.1-2.2,1.2-.5,2.5-.8,3.8-.8s2.6.3,3.8.8,2.2,1.3,3.1,2.2,1.6,2.1,2,3.2c1,2.5,1,5.3,0,7.8-.5,1.2-1.2,2.3-2,3.2-.9.9-1.9,1.7-3.1,2.2-1.2.6-2.5.8-3.8.8l-.2.1ZM290,132.7c0,1.1.2,2.2.6,3.3.4,1,.9,1.9,1.7,2.7.7.8,1.5,1.4,2.4,1.8,1.9.9,4.1.9,6,0,.9-.4,1.8-1.1,2.5-1.8,2.2-2.5,2.9-6.1,1.7-9.3-.4-1-.9-1.9-1.7-2.7-.7-.8-1.5-1.4-2.4-1.8-.9-.5-1.9-.7-3-.7s-2.1.2-3,.7c-.9.4-1.8,1.1-2.4,1.8-.7.8-1.3,1.7-1.7,2.7s-.6,2.1-.6,3.3h-.1Z"/><path class="cls-1" d="M312,114.7h1.9v23.7c0,.7.2,1.3.6,1.7.4.4,1,.6,1.7.6h1c.4,0,.7-.2,1.1-.3l.4,1.5c-.5.2-1.1.4-1.6.4-.5.1-1.1.2-1.6.2-1.1,0-1.9-.3-2.5-.9s-1-1.5-1-2.6v-24.3h0Z"/><path class="cls-1" d="M321.7,118.2v-3.5h1.9v3.5h-1.9ZM321.7,142.4v-19.7h1.9v19.7h-1.9Z"/><path class="cls-1" d="M328.1,132.5c0-1.4.2-2.7.7-3.9.5-1.2,1.1-2.3,2-3.2,1.8-1.9,4.3-3,7-3,1.7,0,3.3.4,4.7,1.2,1.4.8,2.4,2,3.1,3.4l-1.9.6c-.6-1.1-1.4-1.9-2.5-2.5s-2.3-.9-3.5-.9-2.1.2-3,.6-1.8,1-2.4,1.8c-.7.8-1.3,1.7-1.7,2.7-.4,1.1-.6,2.2-.6,3.3s.2,2.3.6,3.4c.4,1,.9,1.9,1.7,2.7.7.8,1.5,1.4,2.4,1.8.9.5,2,.7,3,.7s1.4-.1,2-.3c.6-.2,1.3-.5,1.9-.8.5-.3,1-.7,1.5-1.1.4-.4.7-.9.9-1.4l1.8.5c-.3.7-.6,1.4-1.2,1.9-.5.6-1.1,1.1-1.8,1.5s-1.5.8-2.4,1-1.8.4-2.7.4c-1.3,0-2.7-.3-3.9-.8s-2.2-1.3-3.1-2.2c-1.8-2.1-2.8-4.7-2.8-7.3h0l.2-.1Z"/><path class="cls-1" d="M350.1,118.2v-3.5h1.9v3.5h-1.9ZM350.1,142.4v-19.7h1.9v19.7h-1.9Z"/><path class="cls-1" d="M366.8,141.4s-.3.2-.5.3c-.3.2-.6.3-.9.4-.4.1-.8.2-1.2.4-.5.1-1,.2-1.5.2s-1,0-1.5-.2c-.5-.1-.9-.4-1.2-.7s-.6-.7-.8-1.1c-.2-.5-.3-1-.3-1.5v-14.8h-2.8v-1.6h2.8v-6.7h1.9v6.7h4.6v1.6h-4.6v14.4c0,.7.2,1.3.8,1.7.5.4,1.1.5,1.7.5.7,0,1.4-.1,2-.4s.9-.4,1.1-.5l.5,1.5-.1-.2Z"/><path class="cls-1" d="M377.8,142.8c-1.3,0-2.6-.3-3.8-.8-1.2-.5-2.2-1.3-3-2.2-.9-.9-1.5-2.1-2-3.2-.5-1.2-.7-2.6-.7-3.9s.2-2.7.7-3.9c.5-1.2,1.2-2.3,2-3.2s1.9-1.7,3.1-2.2,2.5-.8,3.8-.8,2.6.3,3.8.8c1.2.5,2.2,1.3,3.1,2.2.9.9,1.6,2.1,2,3.2,1,2.5,1,5.3,0,7.8-.5,1.2-1.2,2.3-2,3.2-.9.9-1.9,1.7-3.1,2.2s-2.5.8-3.8.8h-.1ZM370.1,132.7c0,1.1.2,2.2.6,3.3.4,1,.9,1.9,1.7,2.7.7.8,1.5,1.4,2.4,1.8,1.9.9,4.1.9,6,0,.9-.4,1.8-1.1,2.5-1.8,2.2-2.5,2.9-6.1,1.7-9.3-.4-1-.9-1.9-1.7-2.7-.7-.8-1.5-1.4-2.4-1.8-.9-.5-1.9-.7-3-.7s-2.1.2-3,.7c-.9.4-1.8,1.1-2.4,1.8-.7.8-1.3,1.7-1.7,2.7-.4,1-.6,2.1-.6,3.3h-.1Z"/><path class="cls-1" d="M401.3,124.4c-1.7,0-3.3.6-4.6,1.6s-2.2,2.4-2.8,4.1v12.3h-1.9v-19.7h1.8v4.8c.6-1.3,1.6-2.5,2.7-3.4,1-.8,2.3-1.4,3.6-1.5h1.2v1.8h0Z"/><path class="cls-1" d="M411.2,142.8c-1.5,0-3-.2-4.4-.8-1.4-.5-2.6-1.3-3.6-2.3l.9-1.3c1,.9,2.1,1.6,3.3,2.1,1.2.5,2.5.7,3.7.7,1.7,0,3.1-.4,4.1-1.1,1-.6,1.6-1.8,1.6-3,0-.5-.1-1.1-.4-1.5-.3-.5-.7-.8-1.2-1.1-.6-.3-1.3-.6-2-.8-.8-.2-1.7-.5-2.7-.7-1.1-.3-2.1-.5-2.9-.8-.7-.2-1.4-.5-2-.9-.5-.3-.9-.8-1.2-1.3-.3-.6-.4-1.3-.4-1.9,0-.9.2-1.8.6-2.6.4-.7.9-1.4,1.6-1.8.7-.5,1.5-.9,2.3-1.1,2.3-.6,4.7-.5,6.9.4,1.2.5,2.1,1.2,2.8,2l-1.1,1c-.7-.8-1.6-1.4-2.5-1.7-1.1-.4-2.2-.6-3.4-.6-.7,0-1.4,0-2.1.2-.6.1-1.2.4-1.7.7-.5.3-.9.8-1.1,1.3-.3.6-.4,1.2-.4,1.8,0,.5,0,1,.3,1.4.2.4.5.7.9.9.5.3,1.1.5,1.6.7.6.2,1.4.4,2.4.6,1.2.3,2.3.6,3.3.9.8.2,1.7.6,2.4,1,.6.4,1.1.8,1.5,1.4.4.5.5,1.3.5,2.1,0,1.8-.7,3.2-2.1,4.2s-3.2,1.5-5.5,1.5v.4Z"/></g></g><path class="cls-2" d="M693.7,30.1c-8.2,0-14.9-6.7-14.9-14.9s6.7-14.9,14.9-14.9,14.9,6.7,14.9,14.9-6.7,14.9-14.9,14.9ZM693.7,1.3c-7.7,0-13.9,6.3-13.9,13.9s6.3,13.9,13.9,13.9,13.9-6.3,13.9-13.9-6.3-13.9-13.9-13.9Z"/><path class="cls-2" d="M689,21.7v-13h5.4c.6,0,1.1.1,1.5.4s.9.5,1.2.9.6.8.8,1.3.3,1,.3,1.5-.1,1.2-.4,1.8-.6,1-1.1,1.4-1,.6-1.6.7l3.2,5.1h-1.1l-3.2-4.9h-4.2v4.9h-.9l.1-.1ZM690,15.9h4.6c.6,0,1.1-.2,1.5-.5s.7-.7,1-1.2c.2-.5.4-1,.4-1.6s-.1-1.1-.4-1.6-.6-.9-1.1-1.2c-.4-.3-.9-.5-1.5-.5h-4.4v6.4l-.1.2Z"/></g></svg>