<?xml version="1.0" encoding="UTF-8"?>
<svg id="Layer_2" data-name="Layer 2" xmlns="http://www.w3.org/2000/svg" viewBox="0 0 123.94 100">
  <defs>
    <style>
      .cls-1, .cls-2 {
        stroke-width: 0px;
      }

      .cls-2 {
        opacity: .33;
      }
    </style>
  </defs>
  <g id="Layer_1-2" data-name="Layer 1">
    <g>
      <polygon class="cls-2" points="64.5 12.62 2.82 21.13 16.2 95.07 44.19 91.4 64.5 12.62"/>
      <polygon class="cls-2" points="64.33 13.28 14.79 9.15 6.45 83.47 6.34 84.51 45.2 87.48 64.33 13.28"/>
      <polygon class="cls-2" points="64.74 11.69 26.06 0 0 70.42 46.04 84.23 64.74 11.69"/>
      <g>
        <polygon class="cls-1" points="64.33 13.28 61.43 13.04 19.07 18.89 11.36 39.72 9.38 57.39 12.41 74.15 46.04 84.23 64.33 13.28"/>
        <polygon class="cls-1" points="67.91 13.58 49.43 85.25 55.84 87.17 74.54 14.65 72.18 13.94 67.91 13.58"/>
      </g>
      <polygon class="cls-1" points="108.11 24.79 77.93 15.67 59.24 88.19 60.82 88.67 63.49 88.87 104.53 83.5 110.67 66.46 112.57 49.66 108.11 24.79"/>
      <g>
        <polygon class="cls-2" points="74.54 14.65 68.13 12.71 49.43 85.25 55.84 87.17 74.54 14.65"/>
        <polygon class="cls-2" points="77.93 15.67 59.24 88.19 98.59 100 123.94 29.58 77.93 15.67"/>
      </g>
      <g>
        <polygon class="cls-2" points="74.67 14.14 67.91 13.58 48.79 87.75 55.56 88.27 74.67 14.14"/>
        <polygon class="cls-2" points="78.25 14.44 59.15 88.54 107.75 92.25 116.2 17.61 78.25 14.44"/>
      </g>
      <g>
        <polygon class="cls-2" points="58.91 89.47 118.31 81.69 104.93 7.04 79.24 10.59 58.91 89.47"/>
        <polygon class="cls-2" points="75.45 11.11 68.29 12.1 47.97 90.91 55.12 89.97 75.45 11.11"/>
      </g>
    </g>
  </g>
</svg>