<?xml version="1.0" encoding="UTF-8"?>
<svg id="Layer_2" data-name="Layer 2" xmlns="http://www.w3.org/2000/svg" viewBox="0 0 107 100.5">
  <defs>
    <style>
      .cls-1 {
        fill: none;
        stroke: #000;
        stroke-miterlimit: 10;
      }

      .cls-2 {
        stroke-width: 0px;
      }
    </style>
  </defs>
  <g id="Layer_1-2" data-name="Layer 1">
    <g>
      <polygon class="cls-1" points="87.18 8.33 77.56 8.33 72.75 16.67 77.56 25 87.18 25 91.99 16.67 87.18 8.33"/>
      <g>
        <polygon class="cls-2" points="43.88 33.33 34.26 33.33 29.44 41.67 34.26 50 43.88 50 48.69 41.67 43.88 33.33"/>
        <polygon class="cls-1" points="43.88 50 34.26 50 29.44 58.33 34.26 66.67 43.88 66.67 48.69 58.33 43.88 50"/>
        <polygon class="cls-2" points="43.88 66.67 34.26 66.67 29.44 75 34.26 83.33 43.88 83.33 48.69 75 43.88 66.67"/>
        <polygon class="cls-1" points="43.88 83.33 34.26 83.33 29.44 91.67 34.26 100 43.88 100 48.69 91.67 43.88 83.33"/>
        <polygon class="cls-1" points="58.31 25 48.69 25 43.88 33.33 48.69 41.67 58.31 41.67 63.12 33.33 58.31 25"/>
        <polygon class="cls-2" points="43.88 16.67 34.26 16.67 29.44 25 34.26 33.33 43.88 33.33 48.69 25 43.88 16.67"/>
        <polygon class="cls-2" points="58.31 75 48.69 75 43.88 83.33 48.69 91.67 58.31 91.67 63.12 83.33 58.31 75"/>
        <polygon class="cls-2" points="58.31 58.33 48.69 58.33 43.88 66.67 48.69 75 58.31 75 63.12 66.67 58.31 58.33"/>
        <polygon class="cls-2" points="87.18 41.67 77.56 41.67 72.75 50 77.56 58.33 87.18 58.33 91.99 50 87.18 41.67"/>
        <polygon class="cls-2" points="72.75 33.33 63.12 33.33 58.31 41.67 63.12 50 72.75 50 77.56 41.67 72.75 33.33"/>
        <polygon class="cls-1" points="72.75 50 63.12 50 58.31 58.33 63.12 66.67 72.75 66.67 77.56 58.33 72.75 50"/>
        <polygon class="cls-2" points="72.75 66.67 63.12 66.67 58.31 75 63.12 83.33 72.75 83.33 77.56 75 72.75 66.67"/>
        <polygon class="cls-1" points="72.75 83.33 63.12 83.33 58.31 91.67 63.12 100 72.75 100 77.56 91.67 72.75 83.33"/>
        <polygon class="cls-2" points="87.18 25 77.56 25 72.75 33.33 77.56 41.67 87.18 41.67 91.99 33.33 87.18 25"/>
        <polygon class="cls-2" points="72.75 16.67 63.12 16.67 58.31 25 63.12 33.33 72.75 33.33 77.56 25 72.75 16.67"/>
        <polygon class="cls-2" points="87.18 75 77.56 75 72.75 83.33 77.56 91.67 87.18 91.67 91.99 83.33 87.18 75"/>
        <polygon class="cls-2" points="87.18 58.33 77.56 58.33 72.75 66.67 77.56 75 87.18 75 91.99 66.67 87.18 58.33"/>
        <polygon class="cls-1" points="101.61 33.33 91.99 33.33 87.18 41.67 91.99 50 101.61 50 106.42 41.67 101.61 33.33"/>
        <polygon class="cls-2" points="101.61 50 91.99 50 87.18 58.33 91.99 66.67 101.61 66.67 106.42 58.33 101.61 50"/>
        <polygon class="cls-2" points="58.31 8.33 48.69 8.33 43.88 16.67 48.69 25 58.31 25 63.12 16.67 58.31 8.33"/>
        <polygon class="cls-2" points="43.88 0 34.26 0 29.44 8.33 34.26 16.67 43.88 16.67 48.69 8.33 43.88 0"/>
        <polygon class="cls-2" points="72.75 0 63.12 0 58.31 8.33 63.12 16.67 72.75 16.67 77.56 8.33 72.75 0"/>
        <polygon class="cls-2" points="29.44 41.67 19.82 41.67 15.01 50 19.82 58.33 29.44 58.33 34.26 50 29.44 41.67"/>
        <polygon class="cls-1" points="15.01 33.33 5.39 33.33 .58 41.67 5.39 50 15.01 50 19.82 41.67 15.01 33.33"/>
        <polygon class="cls-2" points="15.01 50 5.39 50 .58 58.33 5.39 66.67 15.01 66.67 19.82 58.33 15.01 50"/>
        <polygon class="cls-2" points="29.44 25 19.82 25 15.01 33.33 19.82 41.67 29.44 41.67 34.26 33.33 29.44 25"/>
        <polygon class="cls-2" points="29.44 75 19.82 75 15.01 83.33 19.82 91.67 29.44 91.67 34.26 83.33 29.44 75"/>
        <polygon class="cls-2" points="29.44 58.33 19.82 58.33 15.01 66.67 19.82 75 29.44 75 34.26 66.67 29.44 58.33"/>
      </g>
      <polygon class="cls-1" points="29.44 8.33 19.82 8.33 15.01 16.67 19.82 25 29.44 25 34.26 16.67 29.44 8.33"/>
    </g>
  </g>
</svg>