<?xml version="1.0" encoding="UTF-8"?><svg id="Layer_2" xmlns="http://www.w3.org/2000/svg" viewBox="0 0 88 152.8"><defs><style>.cls-1{fill:#fff;}</style></defs><g id="Layer_1-2"><path class="cls-1" d="M88,20c0,11.1-11.6,15.6-17.7,17.8s-45.8,17.1-53.2,20c-7.3,3-17.1,5.2-17.1,16.3v-20c0-11.1,9.8-13.3,17.1-16.3s47.1-17.8,53.2-20c6.1-2.2,17.7-6.7,17.7-17.8v20h0Z"/><path class="cls-1" d="M88,59.4c0,11.1-11.6,15.6-17.7,17.8-6.1,2.2-45.8,17.1-53.2,20-7.3,3-17.1,5.2-17.1,16.3v-20c0-11.1,9.8-13.3,17.1-16.3s47.1-17.8,53.2-20c6.1-2.2,17.7-6.7,17.7-17.8v20h0Z"/><path class="cls-1" d="M88,98.7c0,11.1-11.6,15.6-17.7,17.8s-45.8,17.1-53.2,20c-7.3,3-17.1,5.2-17.1,16.3v-20c0-11.1,9.8-13.3,17.1-16.3s47.1-17.8,53.2-20c6.1-2.2,17.7-6.7,17.7-17.8v20h0Z"/></g></svg>