<?xml version="1.0" encoding="UTF-8"?>
<svg id="Layer_2" data-name="Layer 2" xmlns="http://www.w3.org/2000/svg" viewBox="0 0 109.92 100">
  <defs>
    <style>
      .cls-1 {
        stroke-width: 0px;
      }
    </style>
  </defs>
  <g id="Layer_1-2" data-name="Layer 1">
    <g>
      <path class="cls-1" d="m12.45,50c0,3.58-2.67,6.26-6.22,6.25C2.74,56.25-.05,53.42,0,49.94c.05-3.4,2.83-6.18,6.21-6.2,3.5-.02,6.23,2.73,6.23,6.26Z"/>
      <path class="cls-1" d="m97.43,49.99c0-3.51,2.8-6.29,6.28-6.25,3.41.04,6.18,2.81,6.21,6.21.04,3.49-2.76,6.3-6.25,6.3-3.55,0-6.25-2.71-6.24-6.26Z"/>
      <path class="cls-1" d="m13.94,34.67c-.02,2.99-2.44,5.37-5.46,5.35-2.97-.01-5.39-2.49-5.36-5.47.04-2.98,2.51-5.41,5.47-5.38,2.98.03,5.36,2.49,5.34,5.49Z"/>
      <path class="cls-1" d="m8.49,70.81c-3.02-.03-5.38-2.44-5.36-5.46.02-2.98,2.5-5.4,5.48-5.36,3.01.04,5.37,2.46,5.34,5.47-.03,3.02-2.43,5.38-5.46,5.35Z"/>
      <path class="cls-1" d="m101.3,29.17c2.98-.03,5.43,2.36,5.49,5.35.06,2.94-2.38,5.44-5.35,5.49-2.96.05-5.44-2.37-5.47-5.35-.03-3,2.36-5.47,5.32-5.49Z"/>
      <path class="cls-1" d="m101.28,70.82c-3-.03-5.36-2.47-5.3-5.49.05-3.01,2.52-5.4,5.49-5.33,2.98.07,5.39,2.56,5.33,5.52-.06,3-2.49,5.33-5.51,5.3Z"/>
      <path class="cls-1" d="m22.29,72.57c-2.68-.01-4.77-2.15-4.74-4.85.03-2.63,2.11-4.72,4.71-4.73,2.64,0,4.85,2.17,4.87,4.79.01,2.65-2.16,4.8-4.84,4.79Z"/>
      <path class="cls-1" d="m92.37,32.27c-.02,2.71-2.15,4.82-4.83,4.77-2.58-.05-4.76-2.21-4.77-4.75-.01-2.65,2.17-4.85,4.82-4.84,2.69,0,4.8,2.13,4.78,4.83Z"/>
      <path class="cls-1" d="m14.88,73.02c2.55.01,4.67,2.13,4.65,4.64-.02,2.52-2.18,4.61-4.72,4.58-2.51-.04-4.54-2.06-4.55-4.56-.01-2.54,2.1-4.68,4.61-4.66Z"/>
      <path class="cls-1" d="m95,82.23c-2.59-.05-4.6-2.12-4.55-4.7.05-2.59,2.14-4.61,4.71-4.53,2.56.07,4.57,2.21,4.5,4.77-.07,2.46-2.2,4.5-4.66,4.46Z"/>
      <path class="cls-1" d="m94.98,27.01c-2.48-.02-4.55-2.08-4.58-4.54-.03-2.55,2.05-4.67,4.6-4.7,2.53-.02,4.64,2.08,4.66,4.64.02,2.52-2.12,4.62-4.67,4.6Z"/>
      <path class="cls-1" d="m19.43,22.4c0,2.63-1.99,4.64-4.59,4.61-2.55-.03-4.61-2.14-4.58-4.69.03-2.48,2.08-4.52,4.58-4.54,2.57-.02,4.59,2,4.59,4.63Z"/>
      <path class="cls-1" d="m36.17,64.16c2.53,0,4.5,2.01,4.47,4.56-.03,2.47-2.01,4.42-4.47,4.4-2.51-.02-4.45-1.93-4.46-4.4-.02-2.57,1.93-4.55,4.47-4.56Z"/>
      <path class="cls-1" d="m73.64,27c2.46.02,4.46,1.99,4.46,4.41,0,2.48-2.09,4.57-4.53,4.53-2.48-.04-4.54-2.17-4.48-4.61.06-2.41,2.1-4.35,4.55-4.33Z"/>
      <path class="cls-1" d="m33.94,77.26c.02,2.43-1.98,4.45-4.42,4.46-2.4,0-4.46-2.04-4.47-4.44,0-2.44,1.98-4.43,4.44-4.45,2.41-.02,4.43,1.99,4.45,4.43Z"/>
      <path class="cls-1" d="m84.88,22.68c.04,2.45-1.92,4.47-4.37,4.5-2.43.03-4.47-1.96-4.5-4.39-.03-2.44,1.97-4.5,4.38-4.51,2.44,0,4.45,1.96,4.49,4.4Z"/>
      <path class="cls-1" d="m49.09,74.55c-.03,2.26-1.84,4.02-4.1,3.98-2.24-.04-4-1.86-3.98-4.11.02-2.27,1.8-4,4.09-3.97,2.24.03,4.02,1.86,3.99,4.1Z"/>
      <path class="cls-1" d="m64.88,21.59c2.24.03,4,1.86,3.95,4.1-.05,2.23-1.88,3.95-4.16,3.91-2.26-.04-3.95-1.82-3.93-4.12.03-2.24,1.81-3.92,4.14-3.89Z"/>
      <path class="cls-1" d="m89.63,12.84c0,2.15-1.82,3.96-3.99,3.96-2.2,0-4-1.75-4.03-3.92-.03-2.21,1.84-4.07,4.07-4.05,2.15.02,3.95,1.85,3.95,4.01Z"/>
      <path class="cls-1" d="m24.23,83.27c2.32-.02,4.09,1.72,4.05,4-.03,2.2-1.8,3.91-4.02,3.9-2.19,0-3.97-1.77-3.98-3.95-.01-2.18,1.74-3.94,3.95-3.95Z"/>
      <path class="cls-1" d="m85.75,83.27c2.18.02,3.93,1.83,3.87,4.01-.05,2.17-1.86,3.92-4.03,3.9-2.21-.02-3.95-1.77-3.95-3.97,0-2.25,1.78-3.96,4.11-3.94Z"/>
      <path class="cls-1" d="m24.25,16.73c-2.21,0-3.98-1.76-3.96-3.92.01-2.16,1.81-3.97,3.97-3.98,2.24-.01,4.08,1.84,4.05,4.06-.03,2.17-1.8,3.85-4.05,3.84Z"/>
      <path class="cls-1" d="m71.46,12.86c2.07,0,3.79,1.7,3.81,3.76.02,2.13-1.74,3.89-3.86,3.86-2.08-.03-3.7-1.71-3.68-3.83.01-2.11,1.67-3.79,3.74-3.78Z"/>
      <path class="cls-1" d="m95.48,43.45c-.02,2.09-1.69,3.73-3.8,3.74-2.01,0-3.79-1.77-3.79-3.78,0-2.09,1.83-3.89,3.9-3.84,2.05.05,3.71,1.81,3.69,3.88Z"/>
      <path class="cls-1" d="m18.32,52.87c2.06.03,3.72,1.76,3.69,3.84-.03,2.05-1.77,3.74-3.83,3.73-2.03,0-3.78-1.76-3.77-3.79,0-2.14,1.73-3.81,3.92-3.78Z"/>
      <path class="cls-1" d="m41.94,83.21c0,2.06-1.67,3.7-3.78,3.73-2.05.02-3.76-1.66-3.8-3.72-.04-2.09,1.74-3.83,3.88-3.81,2.07.03,3.7,1.7,3.7,3.8Z"/>
      <path class="cls-1" d="m34.04,59.59c.02,2.12-1.59,3.76-3.69,3.77-2.05.01-3.79-1.67-3.83-3.7-.03-2.06,1.78-3.9,3.83-3.9,2.05,0,3.66,1.68,3.68,3.82Z"/>
      <path class="cls-1" d="m79.53,44.23c-2.06.03-3.8-1.63-3.85-3.69-.05-2,1.69-3.78,3.74-3.82,2.08-.04,3.75,1.59,3.79,3.72.04,2.15-1.51,3.76-3.68,3.79Z"/>
      <path class="cls-1" d="m54.71,72.42c1.97-.03,3.66,1.54,3.73,3.45.06,1.88-1.59,3.61-3.52,3.67-1.92.06-3.63-1.54-3.69-3.47-.07-1.95,1.53-3.63,3.48-3.65Z"/>
      <path class="cls-1" d="m58.51,24.11c-.02,2.02-1.6,3.56-3.6,3.5-1.91-.05-3.48-1.64-3.5-3.51-.02-1.94,1.62-3.6,3.57-3.62,1.91-.02,3.54,1.66,3.53,3.62Z"/>
      <path class="cls-1" d="m62.1,65.89c.04,1.93-1.61,3.62-3.52,3.62-1.85,0-3.49-1.59-3.56-3.44-.07-1.85,1.52-3.53,3.38-3.58,2.03-.05,3.67,1.45,3.71,3.4Z"/>
      <path class="cls-1" d="m51.42,37.71c-1.99,0-3.53-1.47-3.53-3.39,0-1.93,1.67-3.54,3.63-3.51,1.9.03,3.46,1.64,3.43,3.53-.04,1.94-1.54,3.38-3.53,3.38Z"/>
      <path class="cls-1" d="m46.92,38.66c-.02,1.83-1.59,3.36-3.41,3.34-1.81-.02-3.34-1.61-3.31-3.43.03-1.88,1.52-3.32,3.41-3.29,1.87.03,3.34,1.52,3.32,3.39Z"/>
      <path class="cls-1" d="m66.41,58.32c1.9,0,3.41,1.47,3.4,3.34,0,1.84-1.57,3.39-3.42,3.37-1.87-.02-3.35-1.56-3.31-3.45.04-1.82,1.5-3.25,3.33-3.26Z"/>
      <path class="cls-1" d="m34.8,3.44c1.78,0,3.32,1.5,3.31,3.24-.01,1.81-1.48,3.27-3.28,3.25-1.75-.01-3.17-1.41-3.21-3.16-.04-1.81,1.41-3.33,3.18-3.34Z"/>
      <path class="cls-1" d="m75.09,3.44c1.78,0,3.24,1.49,3.22,3.31-.03,1.75-1.43,3.16-3.18,3.19-1.79.02-3.28-1.44-3.31-3.23-.03-1.78,1.45-3.25,3.28-3.26Z"/>
      <path class="cls-1" d="m38.1,93.4c-.04,1.8-1.54,3.23-3.35,3.19-1.8-.05-3.22-1.58-3.14-3.38.08-1.75,1.53-3.15,3.25-3.13,1.78.02,3.27,1.55,3.23,3.32Z"/>
      <path class="cls-1" d="m75,96.58c-1.82-.04-3.24-1.53-3.18-3.34.06-1.73,1.52-3.15,3.24-3.15,1.79,0,3.27,1.5,3.25,3.29-.02,1.83-1.48,3.24-3.31,3.2Z"/>
      <path class="cls-1" d="m47.96,89.35c-1.76,0-3.18-1.4-3.2-3.16-.02-1.76,1.37-3.19,3.14-3.22,1.86-.03,3.29,1.39,3.26,3.23-.03,1.78-1.41,3.15-3.2,3.15Z"/>
      <path class="cls-1" d="m61.88,17.04c-1.78-.03-3.17-1.43-3.15-3.19.02-1.79,1.4-3.14,3.2-3.14,1.84,0,3.28,1.45,3.23,3.27-.05,1.75-1.47,3.08-3.28,3.06Z"/>
      <path class="cls-1" d="m49.38,62.3c1.76.04,3.08,1.38,3.04,3.11-.04,1.78-1.47,3.13-3.26,3.09-1.65-.04-3.06-1.56-2.98-3.21.08-1.71,1.48-3.02,3.2-2.98Z"/>
      <path class="cls-1" d="m91.96,50.78c1.65.02,3.07,1.47,3.07,3.12,0,1.71-1.53,3.17-3.25,3.1-1.68-.07-3.04-1.52-2.98-3.19.06-1.67,1.5-3.05,3.16-3.03Z"/>
      <path class="cls-1" d="m17.95,43.02c1.66-.02,3.12,1.37,3.16,3.03.05,1.69-1.31,3.12-3,3.16-1.8.04-3.23-1.31-3.24-3.07,0-1.66,1.41-3.1,3.07-3.12Z"/>
      <path class="cls-1" d="m63.79,35.02c-.03,1.72-1.37,2.99-3.14,2.99-1.76,0-3.07-1.31-3.07-3.05,0-1.74,1.48-3.15,3.23-3.1,1.72.05,3,1.41,2.97,3.16Z"/>
      <path class="cls-1" d="m83.76,50.46c.03,1.59-1.24,2.93-2.82,2.98-1.61.05-3.04-1.3-3.09-2.91-.06-1.6,1.32-2.94,3.01-2.93,1.61,0,2.87,1.25,2.9,2.87Z"/>
      <path class="cls-1" d="m91.99,63.67c.02,1.7-1.27,3.05-2.89,3.03-1.58-.01-2.86-1.3-2.89-2.9-.04-1.69,1.25-3.03,2.9-3.01,1.58.01,2.86,1.29,2.88,2.88Z"/>
      <path class="cls-1" d="m20.87,33.31c1.66.05,2.92,1.41,2.85,3.1-.06,1.61-1.35,2.82-2.97,2.79-1.64-.03-2.94-1.41-2.88-3.06.06-1.53,1.48-2.87,2.99-2.83Z"/>
      <path class="cls-1" d="m29,46.73c1.65.01,2.86,1.22,2.86,2.85,0,1.65-1.34,2.97-2.99,2.94-1.56-.03-2.86-1.34-2.88-2.91-.02-1.64,1.29-2.89,3.01-2.88Z"/>
      <path class="cls-1" d="m45.23,93.72c1.5,0,2.81,1.32,2.82,2.82,0,1.52-1.27,2.79-2.81,2.79-1.59,0-2.78-1.2-2.78-2.79,0-1.55,1.25-2.82,2.78-2.82Z"/>
      <path class="cls-1" d="m67.46,96.75c-.11,1.56-1.41,2.68-3,2.58-1.53-.1-2.72-1.48-2.59-3,.13-1.51,1.54-2.72,3.03-2.6,1.53.12,2.67,1.46,2.56,3.03Z"/>
      <path class="cls-1" d="m67.47,3.5c-.01,1.57-1.25,2.81-2.79,2.79-1.52-.02-2.8-1.31-2.8-2.82,0-1.5,1.32-2.79,2.84-2.78,1.55,0,2.77,1.25,2.76,2.82Z"/>
      <path class="cls-1" d="m48.05,3.49c0,1.51-1.29,2.79-2.82,2.8-1.54.01-2.78-1.24-2.78-2.8,0-1.56,1.23-2.81,2.78-2.8,1.52,0,2.82,1.3,2.82,2.8Z"/>
      <path class="cls-1" d="m45.24,23.7c1.46.02,2.66,1.29,2.62,2.77-.04,1.42-1.24,2.59-2.65,2.58-1.45,0-2.73-1.28-2.71-2.71.02-1.49,1.24-2.68,2.74-2.65Z"/>
      <path class="cls-1" d="m64.72,76.39c-1.48.04-2.71-1.17-2.74-2.67-.03-1.48,1.05-2.59,2.54-2.64,1.55-.05,2.69,1.04,2.72,2.62.03,1.46-1.09,2.66-2.52,2.7Z"/>
      <path class="cls-1" d="m57.32,88.92c-1.32.03-2.51-1.16-2.52-2.52,0-1.35,1.02-2.4,2.38-2.44,1.47-.04,2.54.95,2.58,2.38.03,1.41-1.04,2.54-2.43,2.58Z"/>
      <path class="cls-1" d="m39.33,31.86c.02,1.43-1.06,2.55-2.44,2.54-1.36-.02-2.4-1.03-2.45-2.39-.05-1.41,1.04-2.52,2.45-2.52,1.37,0,2.41,1.02,2.43,2.37Z"/>
      <path class="cls-1" d="m52.64,11.11c1.36,0,2.5,1.19,2.47,2.55-.03,1.32-1.1,2.38-2.43,2.39-1.44.02-2.54-1.04-2.54-2.43,0-1.36,1.15-2.53,2.5-2.52Z"/>
      <path class="cls-1" d="m25.69,30.8c-1.36.04-2.5-1.1-2.52-2.49-.01-1.29,1.08-2.44,2.37-2.5,1.37-.06,2.55,1.04,2.59,2.41.04,1.36-1.09,2.54-2.44,2.57Z"/>
      <path class="cls-1" d="m84.18,69.27c1.44-.04,2.55,1,2.57,2.41.02,1.37-1.13,2.56-2.47,2.56-1.3,0-2.42-1.08-2.49-2.39-.07-1.41.98-2.55,2.39-2.58Z"/>
      <path class="cls-1" d="m78.57,62.35c-1.33.04-2.44-.99-2.5-2.32-.06-1.44.98-2.58,2.37-2.61,1.37-.02,2.53,1.1,2.54,2.48,0,1.3-1.09,2.41-2.4,2.45Z"/>
      <path class="cls-1" d="m33.72,40.19c0,1.41-1.13,2.51-2.52,2.48-1.3-.03-2.34-1.15-2.34-2.5,0-1.41,1.13-2.51,2.52-2.47,1.31.04,2.35,1.14,2.34,2.49Z"/>
      <path class="cls-1" d="m72.94,70.58c-1.4.02-2.43-.93-2.48-2.29-.05-1.43.99-2.55,2.38-2.57,1.35-.02,2.51,1.12,2.51,2.47,0,1.3-1.08,2.36-2.42,2.38Z"/>
      <path class="cls-1" d="m57.33,2.43c0,1.35-1.06,2.39-2.42,2.37-1.33-.02-2.4-1.1-2.38-2.43C52.55,1.03,53.62-.01,54.96,0c1.36.01,2.37,1.06,2.37,2.43Z"/>
      <path class="cls-1" d="m55.04,100c-1.37.04-2.42-.96-2.45-2.31-.03-1.4.93-2.42,2.31-2.45,1.37-.03,2.43.96,2.48,2.31.05,1.31-1.01,2.42-2.34,2.46Z"/>
      <path class="cls-1" d="m67.57,37.96c1.31.03,2.29,1.03,2.27,2.32-.02,1.27-1.1,2.35-2.31,2.32-1.24-.03-2.26-1.11-2.26-2.38,0-1.33.98-2.29,2.3-2.26Z"/>
      <path class="cls-1" d="m44.7,59.92c0,1.35-.93,2.33-2.23,2.32-1.3,0-2.28-.97-2.33-2.27-.04-1.34.88-2.27,2.25-2.28,1.37-.01,2.3.89,2.31,2.23Z"/>
      <path class="cls-1" d="m41.83,46.07c-.03,1.19-1.07,2.21-2.26,2.22-1.26,0-2.35-1.08-2.32-2.32.03-1.28,1.11-2.28,2.41-2.21,1.2.06,2.19,1.12,2.17,2.31Z"/>
      <path class="cls-1" d="m72.75,54.24c0,1.28-1.04,2.27-2.36,2.25-1.23-.02-2.22-1-2.24-2.22-.02-1.2.97-2.21,2.21-2.24,1.33-.04,2.39.94,2.39,2.21Z"/>
      <path class="cls-1" d="m33.61,22.46c-.08,1.25-1.11,2.15-2.33,2.04-1.17-.11-2.08-1.1-2.02-2.21.06-1.19,1.14-2.13,2.35-2.05,1.15.07,2.07,1.09,2,2.22Z"/>
      <path class="cls-1" d="m80.66,77.58c.04,1.13-.87,2.11-2.04,2.19-1.24.09-2.29-.84-2.32-2.05-.03-1.13.9-2.14,2.04-2.22,1.18-.08,2.28.9,2.32,2.08Z"/>
      <path class="cls-1" d="m67.57,84.8c-.02,1.16-.99,2.12-2.14,2.11-1.24,0-2.21-1.03-2.16-2.25.05-1.16,1.03-2.05,2.22-2.01,1.21.04,2.1.96,2.08,2.15Z"/>
      <path class="cls-1" d="m44.42,17.37c-1.2-.04-2.08-.96-2.04-2.16.03-1.26,1.02-2.15,2.28-2.08,1.19.07,1.99,1,1.94,2.24-.04,1.21-.94,2.04-2.18,2Z"/>
      <path class="cls-1" d="m72.41,83.77c-1.13-.04-1.8-.61-1.88-1.74-.08-1.16.56-1.8,1.67-1.93,1.04-.12,2.05.78,2,1.8-.05,1.09-.65,1.76-1.79,1.87Z"/>
      <path class="cls-1" d="m39.41,18.03c-.08,1.12-.63,1.81-1.76,1.91-1.05.09-2.01-.83-1.94-1.87.07-1.11.69-1.76,1.85-1.77,1.15,0,1.77.58,1.85,1.73Z"/>
      <path class="cls-1" d="m38.04,53.42c.04-1.03.52-1.66,1.54-1.72,1.1-.07,1.71.55,1.78,1.6.06,1.02-.57,1.63-1.53,1.71-1.08.09-1.64-.58-1.79-1.6Z"/>
      <path class="cls-1" d="m70.43,48.61c-1.04-.07-1.67-.66-1.68-1.72-.02-1.02.63-1.63,1.6-1.66,1.07-.03,1.72.67,1.73,1.7,0,.96-.58,1.58-1.64,1.67Z"/>
    </g>
  </g>
</svg>