<?xml version="1.0" encoding="UTF-8"?>
<svg id="Layer_2" data-name="Layer 2" xmlns="http://www.w3.org/2000/svg" viewBox="0 0 100.14 100">
  <defs>
    <style>
      .cls-1 {
        stroke-width: 0px;
      }
    </style>
  </defs>
  <g id="Layer_1-2" data-name="Layer 1">
    <path class="cls-1" d="m96.81,7.84c-2.28,3.14-4.49,6.33-6.87,9.39-.8,1.03-.8,1.64-.05,2.64,9.21,12.31,12.36,26.22,8.87,41-4.83,20.48-17.97,33.81-38.62,37.95-21.34,4.27-39-3.12-51.54-21.02C-6.9,55.68-.76,24.06,21.56,8.82c17.47-11.92,40.48-11.76,57.59.49,2.25,1.61,4.32,3.53,6.27,5.51,1.25,1.27,1.99,1.23,3.23.02,2.56-2.49,5.29-4.81,7.94-7.21.08.07.15.13.23.2ZM29.93,35.87c6.28,4.27,12.18,8.18,17.96,12.27,1.51,1.07,2.37,1.02,3.73-.2,9.35-8.46,18.76-16.84,28.19-25.21,1.08-.96,1.18-1.63.15-2.68-3.46-3.56-7.7-5.39-12.58-5.43-11.53-.11-23.06-.13-34.58,0-9.89.11-18.14,8.51-18.2,18.42-.07,11.23-.08,22.47,0,33.7.05,8.35,5.19,15.48,13.26,17.71,3.38.93,7.09.87,10.65.9,9.83.09,19.67.21,29.5-.09,9.47-.29,17.37-8.45,17.51-17.92.17-11.38.11-22.76,0-34.14-.02-2.23-.77-4.45-1.18-6.68-.32-.07-.64-.15-.96-.22-.26.43-.48.88-.77,1.28-6.89,9.67-13.78,19.35-20.68,29.01-2.05,2.86-3.89,5.92-6.25,8.5-2.94,3.22-9.13,3.17-12.21-3.1-4.23-8.61-8.8-17.05-13.51-26.11Z"/>
  </g>
</svg>