<?xml version="1.0" encoding="UTF-8"?>
<svg id="Layer_2" data-name="Layer 2" xmlns="http://www.w3.org/2000/svg" viewBox="0 0 66.45 100">
  <defs>
    <style>
      .cls-1 {
        stroke-width: 0px;
      }
    </style>
  </defs>
  <g id="Layer_1-2" data-name="Layer 1">
    <g>
      <path class="cls-1" d="m.33,100c0-3.95-.23-7.57.13-11.14.12-1.21,1.53-2.55,2.68-3.37,6.52-4.62,13.15-9.1,19.73-13.64,10.22-7.05,20.43-14.12,30.64-21.18.21-.14.39-.32.69-.57-5.82-4.03-11.55-8-17.27-11.98C25.76,30.37,14.64,22.57,3.44,14.88.97,13.19-.08,11.07.02,8.16.1,5.57.04,2.97.04,0c.72.41,1.16.62,1.56.9,10.33,7.17,20.66,14.35,30.99,21.52,9.89,6.87,19.75,13.79,29.68,20.59,3.26,2.23,4.78,5.03,3.97,8.97-.42,2.05-1.54,3.59-3.24,4.77-8.94,6.18-17.88,12.36-26.82,18.55-10.91,7.55-21.82,15.1-32.73,22.65-.98.68-2,1.32-3.12,2.05Z"/>
      <path class="cls-1" d="m36.11,48.93c-2.74,1.6-5.04,3.21-7.56,4.35-2.25,1.03-4.37-.1-6.27-1.4-5.1-3.49-10.17-7.01-15.25-10.53-2.01-1.39-4.05-2.76-5.99-4.25-.5-.38-.91-1.17-.96-1.8-.13-1.59-.06-3.19-.03-4.79.02-1.32.25-2.57,1.57-3.27,1.4-.74,2.72-.36,3.91.46,3.44,2.33,6.85,4.7,10.26,7.06,6.22,4.3,12.43,8.6,18.65,12.91.39.27.76.57,1.67,1.25Z"/>
    </g>
  </g>
</svg>