<?xml version="1.0" encoding="UTF-8"?>
<svg id="Layer_2" data-name="Layer 2" xmlns="http://www.w3.org/2000/svg" viewBox="0 0 114.71 100">
  <defs>
    <style>
      .cls-1 {
        stroke-width: 0px;
      }
    </style>
  </defs>
  <g id="Layer_1-2" data-name="Layer 1">
    <path class="cls-1" d="m68.81,99.94c16.63-11.24,11.03-27.55,11.22-43.06h-42.95c-.35,15.77-5.06,31.89,15.57,43.12H0c19.39-10.88,14.19-28,14.6-43.54.2-7.39-.08-14.79.06-22.19C14.92,21.53,16.66,8.31,2.3.06h49.17c-17.28,10.48-16.33,25.15-13.94,40.83h41.91c1.66-14.71,4.73-29.76-14.45-40.9h49.16c.05.19.52,1.24.36,1.35-12.67,8.52-12.93,21.21-12.19,34.57.54,9.83.47,19.73.02,29.57-.6,13-.67,25.55,12.38,34.45h-45.9Z"/>
  </g>
</svg>