<?xml version="1.0" encoding="UTF-8"?>
<svg id="Layer_2" data-name="Layer 2" xmlns="http://www.w3.org/2000/svg" viewBox="0 0 82.11 100">
  <defs>
    <style>
      .cls-1 {
        stroke-width: 0px;
      }
    </style>
  </defs>
  <g id="Layer_1-2" data-name="Layer 1">
    <g>
      <path class="cls-1" d="m53.47,24.91c-3.49,9.39-6.65,17.88-10.22,27.51C28.46,34.85,14.23,17.94,0,1.04.21.69.43.35.64,0c17.4,8.2,34.79,16.41,52.83,24.91Z"/>
      <path class="cls-1" d="m75.37,63.64c-11.08-3.52-20.07-6.37-29.87-9.48,3.23-8.77,6.31-17.15,9.83-26.72,6.77,12.23,12.94,23.37,20.04,36.2Z"/>
      <path class="cls-1" d="m15.39,99.18c8.63-12.73,17.26-25.45,26.08-38.46.64,1.02.95,1.33,1.05,1.69,3.18,11.36.47,20-10.54,25.94-5.59,3.02-10.27,7.71-15.37,11.65-.41-.27-.82-.55-1.23-.82Z"/>
      <path class="cls-1" d="m46.18,77.72v-20.4c8.84,2.76,17.51,5.46,28.16,8.79-10.24,4.22-18.54,7.65-28.16,11.62Z"/>
      <path class="cls-1" d="m68.46,45.73c4.93-1.73,8.8-3.08,13.65-4.78-1.51,7.12-2.81,13.25-4.52,21.34-3.52-6.38-6.11-11.09-9.13-16.56Z"/>
    </g>
  </g>
</svg>