<?xml version="1.0" encoding="UTF-8"?>
<svg id="Layer_2" data-name="Layer 2" xmlns="http://www.w3.org/2000/svg" viewBox="0 0 100.82 100">
  <defs>
    <style>
      .cls-1 {
        stroke-width: 0px;
      }
    </style>
  </defs>
  <g id="Layer_1-2" data-name="Layer 1">
    <g>
      <path class="cls-1" d="m77.18,38.24c-2.5-4.51-5.01-9.01-7.82-14.07,2.94,2.41,5.45,4.47,7.96,6.53.28-.27.57-.55.85-.82-2.87-2.87-5.75-5.75-9.1-9.1,3.3,1.3,6.12,2.41,8.94,3.52.19-.34.38-.68.57-1.03-3.19-1.76-6.39-3.51-10.28-5.66,3.17.2,5.55.34,7.93.49.05-.4.11-.81.16-1.21-2.86-.49-5.72-.98-8.99-1.55,2.22-.9,4.23-1.71,6.24-2.52-.14-.46-.28-.92-.42-1.38-3.87,1.05-7.73,2.17-11.63,3.1-1.38.33-3.2.74-4.26.13-11.5-6.51-23.59-8.16-36.44-5.09C31.11,2.56,42.32-1.24,54.72.37c24.81,3.22,41.02,18.97,45.47,43.52,4.33,23.9-14.18,51.18-37.85,55.78-7.68,1.49-17.08-3.38-22.18-11.48-13.92-22.12-6.2-54.48,16.1-67.92,2.18-1.31,3.95-1.39,5.49.47,4.24,5.12,8.36,10.34,12.48,15.55.64.81,1.03,1.83,1.53,2.75.48-.26.95-.53,1.43-.79Z"/>
      <path class="cls-1" d="m39.46,100c-11.13-2.99-16.16-10.26-18.83-19.85-5.81-20.88,5.21-46.61,24.4-55.97-10.46,9.96-17.01,21.97-18.32,36.33-1.32,14.43,1.55,27.82,12.76,39.49Z"/>
      <path class="cls-1" d="m17,88.35c-10.04-10-11.85-22.08-8.03-35.13,5.01-17.11,16.46-27.94,33.59-32.83-12.02,6.82-20.94,16.35-26.05,29.32-5.1,12.93-5.69,25.76.49,38.64Z"/>
      <path class="cls-1" d="m42.94,16.07C16.18,24.52,3.32,40.09,2.11,64.7-7.21,41.46,15.8,15.86,42.94,16.07Z"/>
      <path class="cls-1" d="m42.11,12.28c-13.97.54-26.02,5.47-36.2,15.51,2.06-10.28,18.55-19.26,36.2-15.51Z"/>
    </g>
  </g>
</svg>