<?xml version="1.0" encoding="UTF-8"?><svg id="Layer_2" xmlns="http://www.w3.org/2000/svg" viewBox="0 0 58.56 100"><defs><style>.cls-1{fill:none;stroke:#f4f5f7;stroke-miterlimit:10;}</style></defs><g id="Layer_3"><path class="cls-1" d="M58.06,13.1c0,7.27-7.6,10.19-11.59,11.64-4,1.46-29.98,11.15-34.78,13.1-4.8,1.94-11.19,3.4-11.19,10.67v-13.1c0-7.27,6.4-8.73,11.19-10.67,4.8-1.94,30.78-11.64,34.78-13.1,4-1.45,11.59-4.37,11.59-11.64v13.09h0Z"/><path class="cls-1" d="M58.06,38.84c0,7.27-7.6,10.19-11.59,11.64s-29.98,11.16-34.78,13.1c-4.8,1.94-11.19,3.4-11.19,10.67v-13.1c0-7.27,6.4-8.73,11.19-10.67,4.8-1.94,30.78-11.64,34.78-13.1,4-1.46,11.59-4.37,11.59-11.64v13.09h0Z"/><path class="cls-1" d="M58.06,64.59c0,7.27-7.6,10.19-11.59,11.64-4,1.46-29.98,11.15-34.78,13.1-4.8,1.94-11.19,3.39-11.19,10.67v-13.1c0-7.27,6.4-8.73,11.19-10.67,4.8-1.94,30.78-11.64,34.78-13.1,4-1.45,11.59-4.37,11.59-11.64v13.1h0Z"/></g></svg>