<?xml version="1.0" encoding="UTF-8"?>
<svg id="Layer_2" data-name="Layer 2" xmlns="http://www.w3.org/2000/svg" viewBox="0 0 141.71 100">
  <defs>
    <style>
      .cls-1 {
        stroke-width: 0px;
      }
    </style>
  </defs>
  <g id="Layer_1-2" data-name="Layer 1">
    <g>
      <path class="cls-1" d="m17.57,37.54c1.9-2.38,3.75-4.33,5.88-6.01,6.05-4.79,12.95-6.54,20.55-5.88,3.87.33,7.52,1.43,10.92,3.34,5.69,3.19,8.45,8.28,9.44,14.52.57,3.62.65,7.28.65,10.94,0,14.23-.02,28.47.02,42.7,0,1.06-.26,1.33-1.32,1.32-5.23-.06-10.47-.03-15.7-.03q-1.88,0-1.88-1.83c0-12.84,0-25.69-.05-38.53-.01-3.25-.14-6.51-.83-9.71-1.06-4.95-5.09-8.28-10.16-8.35-6.33-.09-11.19,2.44-14.11,8.19-1.15,2.26-1.39,4.76-1.64,7.23-.4,3.93-.44,7.89-.44,11.84,0,9.99-.01,19.98.02,29.97,0,.97-.23,1.22-1.2,1.22-5.56-.05-11.13-.04-16.69,0-.83,0-1.03-.22-1.03-1.05C.03,74.42.03,51.44,0,28.46c0-1.08.22-1.41,1.36-1.4,5.01.07,10.03.06,15.04,0,1.01-.01,1.21.33,1.19,1.25-.05,2.96-.02,5.91-.02,9.22Z"/>
      <path class="cls-1" d="m141.69,67.41c0-22.06,0-44.13.02-66.19,0-.95-.21-1.23-1.2-1.22-5.56.05-11.12.04-16.69,0-.84,0-1.04.24-1.03,1.05.03,10.83.02,21.66.02,32.49v1.85c-.59-.64-.95-1.03-1.31-1.42-9.97-10.6-24.66-10.43-34.56-4.35-6.66,4.1-10.84,10.14-12.9,17.63-2.36,8.57-2.51,17.26-.98,25.97,1.21,6.88,3.99,13.03,8.92,18.11,4.9,5.04,10.74,8.19,17.84,8.6,9.67.56,17.4-3.27,23.45-10.72.23-.29.38-.69.9-.84,0,3.04.03,6-.02,8.96-.01.84.18,1.12,1.08,1.12,5.09-.05,10.17-.06,15.26,0,1.07.01,1.23-.36,1.22-1.3-.03-9.92-.02-19.83-.02-29.75Zm-21.1,8.53c-3.4,7.83-12.03,11.34-19.59,7.79-4.45-2.09-7.13-5.81-8.28-10.5-1.72-7.02-1.98-14.12-.2-21.18,1.56-6.24,6.28-11.06,12.68-11.99,6.57-.96,13.42,3.2,15.66,9.43,1.55,4.31,1.96,8.75,2.07,13.44-.05,4.34-.5,8.79-2.33,13.01Z"/>
    </g>
  </g>
</svg>