<?xml version="1.0" encoding="UTF-8"?>
<svg id="Layer_2" data-name="Layer 2" xmlns="http://www.w3.org/2000/svg" viewBox="0 0 130.8 100">
  <defs>
    <style>
      .cls-1 {
        stroke-width: 0px;
      }
    </style>
  </defs>
  <g id="Layer_1-2" data-name="Layer 1">
    <g>
      <path class="cls-1" d="m47.88,77.01c-5.14,0-10.27,0-15.41,0-15.63,0-29.41-11.93-32.01-27.37C-2.47,32.28,8.85,15.61,26.07,11.93c4.15-.89,8.34-1,12.52-.18,1.01.2,1.75.04,2.53-.82C46.92,4.63,54.05.89,62.65.14c10.62-.93,19.58,2.63,26.96,10.21,1.04,1.07,1.88,1.47,3.47,1.26,11.73-1.53,21.68,2.08,29.59,10.91,4.73,5.28,7.26,11.53,7.98,18.61,1.72,17.1-10.6,32.65-26.99,35.32-2.28.37-4.61.48-6.92.51-1.18.02-1.82.37-2.37,1.41-3.49,6.54-7.99,12.27-14.14,16.5-2.61,1.79-5.47,3.29-8.37,4.59-3.23,1.44-5.34-.09-5.35-3.6-.02-5.67-.05-11.34.02-17.01.02-1.47-.45-1.9-1.92-1.88-5.57.08-11.14.03-16.72.03ZM83.88,14.68c-.13-.23-.2-.42-.32-.55-.26-.28-.54-.56-.83-.81-6.07-5.11-13-7.24-20.9-6.13-10.74,1.51-19.51,9.88-21.47,20.45-.21,1.14-.01,1.5,1.12,1.74,5.25,1.11,9.43,3.9,12.55,8.27,1.31,1.84,1.01,3.95-.66,5.11-1.58,1.11-3.54.61-4.99-1.05-1.13-1.3-2.31-2.68-3.74-3.59-4.96-3.15-10.02-3.04-15.03.03-1.98,1.21-3.95.85-5.07-.89-1.09-1.68-.58-3.82,1.43-4.95,1.8-1.02,3.71-1.89,5.66-2.56,1.11-.37,1.47-.95,1.73-1.97.66-2.66,1.44-5.3,2.18-7.94.12-.44.27-.88.47-1.52-2.3,0-4.41-.24-6.44.04-14.69,2.03-24.46,15.42-22.34,29.65,1.92,12.91,13.46,22.1,25.07,22,8.43-.07,16.86-.01,25.3-.01,3.88,0,7.75-.02,11.63,0,2.41.02,4.19,1.38,4.11,4.14-.15,4.99-.05,9.98-.04,14.97,0,.54.09,1.08.16,1.88.74-.44,1.25-.71,1.72-1.02,6.62-4.4,11.15-10.52,14.46-17.63.98-2.1,2.28-2.7,4.33-2.62,3.03.13,6.16.4,9.09-.18,18.28-3.65,26.78-24.75,16.26-40.09-7.95-11.59-24.34-15.39-36.05-5.86-1.51,1.23-1.4,1.13-.3,2.66,1.43,1.99,2.67,4.12,3.89,6.25.3.53.34,1.32.23,1.94-.31,1.64-1.47,2.65-2.93,2.77-1.84.15-2.91-.5-3.74-2.33-3.29-7.15-10.1-10.09-17.56-7.59-2.15.72-4.02-.09-4.73-2.05-.66-1.84.26-3.64,2.37-4.45,3.55-1.37,7.34-2.15,10.92-.93,3.38,1.15,5.66.44,7.98-2.01,1.22-1.29,2.96-2.1,4.51-3.16Z"/>
      <path class="cls-1" d="m73.48,55.84c2.74,1.37,5.71,1.92,8.76,1.56,5.49-.63,10.01-3.09,13.34-7.6.83-1.13,1.09-2.01.2-3.34-1.88-2.8-2.66-5.98-2.53-9.37.08-2.01,1.45-3.44,3.35-3.46,1.94-.02,3.38,1.44,3.44,3.52.21,6.26,4.59,10.72,10.81,11.02,2.25.11,3.66,1.74,3.42,3.95-.2,1.87-2.15,3.4-4.1,2.98-2.48-.54-4.95-1.21-7.36-2-.96-.32-1.21.19-1.6.72-3.31,4.52-7.62,7.67-12.96,9.35-6.1,1.92-12.19,1.79-17.87-1.17-2-1.04-3.23-.87-4.98.09-2.89,1.58-6.09,2.15-9.38,2.1-2.31-.03-4.05-1.62-3.99-3.57.07-2.05,1.7-3.53,4.08-3.41,6.49.3,12.38-4.4,13.74-10.66.19-.89.27-1.81.43-2.71.33-1.92,1.83-3.1,3.69-2.93,1.72.16,3.08,1.62,3.07,3.45-.02,3.57-1.08,6.85-2.91,9.89-.22.37-.43.75-.64,1.14-.04.08-.01.19-.03.45Z"/>
      <path class="cls-1" d="m31.76,60.5c-6.61-.04-11.98-2.66-16.13-7.77-1.88-2.32-.92-5.27,1.88-5.88,1.51-.33,2.6.43,3.5,1.54,2.26,2.77,5.11,4.48,8.68,5.06,3.75.61,7.06-.38,10.13-2.47,1.99-1.35,4.27-1.02,5.33.76.95,1.6.61,3.41-.98,4.63-3.65,2.8-7.79,4.2-12.41,4.14Z"/>
    </g>
  </g>
</svg>